<svg version="1" xmlns="http://www.w3.org/2000/svg" width="682.667" height="682.667" viewBox="0 0 512.000000 512.000000"><path d="M233.8.5c-.1.1-2.7.6-5.7.9-3 .4-6.4.9-7.5 1.1-1.2.2-3.7.7-5.6 1-5 .7-9.2 1.5-11.2 2.1-.9.3-2.5.6-3.5.8-14.6 2.9-38.6 11.3-55.3 19.4-28.9 13.9-52.6 31.8-77.5 58.6-13.7 14.7-30 39.3-40.5 61.2-6.8 14-15.4 38.2-17.6 49-.2 1.2-1.3 6.4-2.3 11.5-1.9 9.2-2.4 12.4-4 27.8-.8 8.3-.7 37.9.3 45.3.3 2.7.9 6.9 1.2 9.5.3 2.5 1 6.9 1.5 9.7.5 2.8 1.2 6.6 1.5 8.5 1 6.3 7.3 27.8 10.9 37.7 8.6 23.2 24.7 51.4 40.5 71 26.2 32.4 64.7 60.6 104.2 76.3 16.9 6.7 40.5 13.3 52.6 14.7 3.1.3 5.9.8 6.2.9.6.4 9.1 1.4 16.5 2 6.4.6 35.4.6 36.3.1.4-.2 4.7-.7 9.6-1 4.9-.4 9.3-.9 9.7-1.1.3-.3 3.1-.7 6-1.1 7.3-.8 29.3-6.5 40.4-10.5 67.7-23.8 124.6-76.8 151.1-140.6 6-14.3 12.7-35 14-43.3.2-1.4.7-3.6 1-5 .4-1.4.8-3.5.9-4.7.2-1.2.6-3.5 1-5.2 2-9.2 3.2-28.7 3-48.6-.3-20.3-.7-24.7-4-44-2.2-12.5-10.7-40.4-15.7-51.5-13.7-30.3-29.9-54-52.1-76.4-16.4-16.5-28-25.8-46.9-37.5-21.3-13.3-50.8-26-71.3-30.7-.5-.1-3.9-.9-7.5-1.7-3.6-.8-8.1-1.8-10-2.1-1.9-.3-4.4-.7-5.5-1-1.1-.2-4.9-.7-8.5-1.1-3.6-.5-7.4-1-8.5-1.2-2.7-.4-47.2-1.2-47.7-.8zM284 12.4c1.4.3 4.5.7 6.8 1 14.4 1.7 40.2 8.4 55.8 14.6 14 5.6 32.4 15.2 44.7 23.3 6.7 4.4 12.4 8.3 12.7 8.6.3.4 2.5 2.2 5 4.1 13.4 10.2 32.1 29.4 44.1 45.4 11.8 15.7 26.3 42.7 33.4 62.1 4.1 10.9 10 33.4 11 41.7.4 2.9.8 5.5 1 5.8 1.9 3.1 2.8 49 1.2 62-6.7 56.4-28.5 102.5-67.5 143.2-31.4 32.6-69.3 54.8-114.7 66.8-9.1 2.4-8.9 2.4-21 4.4-12.7 2.1-23.8 3-40 3-34.1 0-65.6-6.7-97.1-20.5C82.5 444.2 27 371.3 16.5 290.3c-.3-2.1-.9-6.7-1.4-10.3-.9-6.4-.8-49.6.2-53.5.2-1.1.8-4.6 1.2-7.9 2.1-17.4 10.4-47.7 17.1-62.6 12.6-27.7 28.4-50.1 51.8-73.5 30-30 65.2-50.7 106.1-62.4 8.1-2.3 24-5.7 30.5-6.6 2.5-.3 7.4-1 11-1.4 6.8-.9 46.7-.7 51 .3z"/><path d="M249.9 24.4c-.2.2-4.9.6-10.4 1-72.9 4.4-143.9 49.2-181.3 114.5-21.6 37.5-31.3 74.8-30.7 117.6.1 10.4.6 21.2.9 24 8.1 58.8 35.5 110.4 78.1 147.2 30.1 26 67.4 44.2 106 51.7 17.9 3.4 25 4.1 45 4.1 16.3 0 25.6-.6 34-2 3.1-.6 12.2-2.3 16.5-3.1 6.6-1.3 27-7.5 32.5-9.9 1.7-.7 6.8-3 11.5-5 40.7-17.9 79.3-52 102.2-90.6 6.8-11.4 12.8-23.2 16.9-33.5 5.8-14.7 12.2-38.5 13.5-49.9.3-2.2.7-4.6.9-5.3.7-1.8 1.9-21.1 1.9-29.7 0-8.2-1.3-29.5-1.8-30.4-.2-.3-.7-2.8-1-5.5-3.3-24.4-14.8-56.8-28.4-80.1-30-51.4-77.5-88.8-134-105.4-9.5-2.8-21.9-5.5-30.2-6.7-13.5-1.8-17.4-2.1-28.2-2.3-6.7-.1-12.5-.4-12.9-.6-.3-.3-.8-.3-1-.1zm34.1 22c1.4.2 4.5.7 7 1.1 2.5.3 8.3 1.5 13 2.6 4.7 1.1 9.5 2.2 10.7 2.4 5.7 1.3 23.9 8.2 33.3 12.6 26 12.4 49.6 30.8 69.9 54.4 7.3 8.5 20.3 29 26.5 41.7 16.3 33.3 22.6 61.3 22.1 97.8-.2 17.8-.6 22.5-2 30-.3 1.4-.7 4.1-1 6-1.1 7.1-5.8 23.8-9.2 33-17.6 47.5-54.4 89.3-99.3 112.9-23 12-42.7 18.4-70.6 22.8-6.3.9-41.9 1-50.4.1-39.2-4.3-78.9-21.5-110.5-47.8-22.8-19-41.2-42.5-54.5-69.5-15.3-31-21.3-57.5-21.3-94.5-.1-14.2.9-24.9 3.3-36.5 1.1-5.4 2.2-10.7 2.4-11.9.3-1.1 1.6-5.9 3-10.6 22.8-77.1 92.8-135.6 175.1-146.4 10.2-1.3 45.2-1.5 52.5-.2z"/><path d="M237.5 69.1c-17.4 2.4-30.1 5.2-34.7 7.6-5.2 2.6-4.2 4.2 13.3 20.8 15.9 15.2 26.7 27.9 36.8 42.8 4.2 6.3 4.9 7.8 3.6 8.3-4.5 1.8-14.3-3-23-11.1-17.4-16.2-55.2-43-63.5-45-5.5-1.3-24.5 11-39.9 25.8-11.1 10.7-13.9 13.9-14.6 16.8-.6 2.4-.1 2.9 5.2 5.9 16.1 9 50.2 33.1 59.7 42.1 9.1 8.6-.7 9-19.4.8-29.9-13.2-48.9-20-59.3-21.2-4-.5-5.1-.3-6.9 1.5-4.8 4.8-16 33.4-19.8 50.5-3.7 16.9-3.1 17.8 14.3 21.7 44.5 9.9 73.6 28.4 90.6 57.5 9.1 15.5 16 40.6 12.8 46.6-3.7 7.1-6.7 6.4-42.8-10.9-4.4-2-5.7-2.1-33.8-2.1H86.8l-2.4 2.8c-3.2 3.7-2.4 5.6 9.4 20.8 5.4 6.9 13.5 18 18 24.7 6.2 9.1 9 12.4 11 12.9 1.5.4 7.4.7 13.2.7 11.7-.1 12.2-.2 28-9.7l8.5-5.1 85.2-.2c76.9-.1 94.3.3 96.1 2.1.4.3.7 3.3.8 6.6 0 3.3.5 6.4 1.1 7 6.5 6.5 54.1-14.9 61.5-27.7 1.7-2.9 1.7-3.1-.7-6.7-4.8-6.9-24.5-18.8-40.2-24.2-8.4-2.9-19.6-4.4-20.6-2.8-.4.6-.9 3.2-1.2 5.9-1.1 9.3-1.8 10.4-7.6 10.4-5 0-8.1-2.7-8.1-7 0-1.9 1.6-10.3 3.7-18.5 4.3-18 8-36.6 9-45.5.4-3.6.9-7.3 1.1-8.3.2-1 .6-6.4 1-12 3.6-53.7-7.3-97.9-33.7-137.5-5.8-8.8-12.1-16.3-22.4-27-7.9-8.2-16.2-16.1-18.5-17.7-4-2.8-4.2-2.8-20.3-3-8.9-.1-18.4.2-21.2.6zm62 209.1c19.4 7.4 20 34.5.9 43-11.4 5-24.7.1-30.2-11.2-2.2-4.6-2.2-16.3 0-20.5 5.9-11 17.9-15.7 29.3-11.3z"/></svg>